<?xml version="1.0" standalone="no"?>
<!DOCTYPE svg PUBLIC "-//W3C//DTD SVG 20010904//EN"
 "http://www.w3.org/TR/2001/REC-SVG-20010904/DTD/svg10.dtd">
<svg version="1.0" xmlns="http://www.w3.org/2000/svg"
 width="114.000000pt" height="114.000000pt" viewBox="0 0 114.000000 114.000000"
 preserveAspectRatio="xMidYMid meet">
<metadata>
Created by potrace 1.11, written by Peter Selinger 2001-2013
</metadata>
<g transform="translate(0.000000,114.000000) scale(0.100000,-0.100000)"
fill="#000000" stroke="none">
<path d="M467 929 c-86 -20 -178 -88 -223 -164 -32 -55 -39 -138 -21 -240 31
-166 84 -253 179 -296 45 -19 69 -23 158 -23 170 1 253 45 313 168 82 166 67
359 -33 450 -105 94 -247 135 -373 105z m186 -145 c56 -19 121 -86 138 -143
15 -52 1 -104 -49 -179 -65 -98 -149 -132 -234 -94 -147 65 -210 227 -134 342
52 79 172 111 279 74z"/>
</g>
</svg>
